<?xml version="1.0" encoding="utf-8" ?><svg xmlns="http://www.w3.org/2000/svg" xmlns:xlink="http://www.w3.org/1999/xlink" width="40" height="40"><rect fill="#5E6AD2" transform="matrix(1 0 0 1 2 2)" width="36" height="36" rx="10" ry="10"/><path fill="#FFF" transform="matrix(1 0 0 1 11 17.5)" d="M3.345 0.4904Q0.6168 2.2435 -1.0625 5.4422Q-1.3091 5.8809 -1.1457 6.3569Q-1.0099 6.8415 -0.5578 7.0625Q-0.1191 7.3091 0.3569 7.1457Q0.8415 7.0099 1.0625 6.5578Q2.4473 3.9201 4.6425 2.5096Q6.6804 1.2 9 1.2Q11.3196 1.2 13.3575 2.5096Q15.5527 3.9201 16.9375 6.5578Q17.1585 7.0099 17.6431 7.1457Q18.1191 7.3091 18.5578 7.0625Q19.0099 6.8415 19.1457 6.3569Q19.3091 5.8809 19.0625 5.4422Q17.3832 2.2435 14.655 0.4904Q12.0242 -1.2 9 -1.2Q5.9758 -1.2 3.345 0.4904Z" fill-rule="evenodd"/><path fill="#FFF" transform="matrix(1 0 0 1 15 24.75)" d="M1.6391 -0.0293Q0.1124 1.0933 -1.047 3.1637Q-1.3054 3.5955 -1.1549 4.0757Q-1.0323 4.5638 -0.5863 4.797Q-0.1545 5.0554 0.3257 4.9049Q0.8138 4.7823 1.047 4.3363Q1.9526 2.7192 3.0609 1.9043Q4.0187 1.2 5 1.2Q5.9813 1.2 6.9391 1.9043Q8.0474 2.7192 8.953 4.3363Q9.1862 4.7823 9.6743 4.9049Q10.1545 5.0554 10.5863 4.797Q11.0323 4.5638 11.1549 4.0757Q11.3054 3.5955 11.047 3.1637Q9.8876 1.0933 8.3609 -0.0293Q6.7687 -1.2 5 -1.2Q3.2313 -1.2 1.6391 -0.0293Z" fill-rule="evenodd"/><circle fill="#FFF" transform="matrix(1 0 0 1 17.4 8.9)" cx="2.6" cy="2.6" r="2.6"/></svg>