<?xml version="1.0" encoding="utf-8" ?><svg xmlns="http://www.w3.org/2000/svg" xmlns:xlink="http://www.w3.org/1999/xlink" width="20" height="20"><path fill="#8A8F99" transform="matrix(1 0 0 1 2.5 6)" d="M5.9527 10.75L1.5473 10.75Q1.5239 10.7507 1.5 10.75Q1.4761 10.7507 1.4527 10.75L0 10.75Q-0.3144 10.759 -0.5303 10.5303Q-0.759 10.3144 -0.75 10Q-0.759 9.6856 -0.5303 9.4697Q-0.3144 9.2409 0 9.25L0.75 9.25L0.75 4Q0.741 3.6856 0.9697 3.4697Q1.1856 3.241 1.5 3.25Q1.8144 3.241 2.0303 3.4697Q2.259 3.6856 2.25 4L2.25 9.25L5.25 9.25L5.25 0Q5.241 -0.3144 5.4697 -0.5303Q5.6856 -0.759 6 -0.75Q6.3144 -0.759 6.5303 -0.5303Q6.759 -0.3144 6.75 0L6.75 9.25L9.75 9.25L9.75 2Q9.7409 1.6856 9.9697 1.4697Q10.1856 1.241 10.5 1.25Q10.8144 1.241 11.0303 1.4697Q11.259 1.6856 11.25 2L11.25 9.25L14.25 9.25L14.25 6Q14.2409 5.6856 14.4697 5.4697Q14.6856 5.241 15 5.25Q15.3144 5.241 15.5303 5.4697Q15.7591 5.6856 15.75 6L15.75 10.75L10.5473 10.75Q10.5239 10.7507 10.5 10.75Q10.4761 10.7507 10.4527 10.75L6.0473 10.75Q6.0239 10.7507 6 10.75Q5.9761 10.7507 5.9527 10.75Z" fill-rule="evenodd"/></svg>